<svg version="1.2" xmlns="http://www.w3.org/2000/svg" viewBox="0 0 320 50" width="320" height="50">
	<title>New Project</title>
	<style>
		.s0 { fill: #000000 } 
	</style>
	<g id="Layer 1">
		<path id="ParkingSystem" class="s0" aria-label="ParkingSystem"  d="m16 38h3v-9.1h5.5c5.8 0 8.4-3.5 8.4-7.9 0-4.4-2.6-7.9-8.5-7.9h-8.4zm3-11.8v-10.4h5.3c4.1 0 5.6 2.2 5.6 5.2 0 3-1.5 5.2-5.5 5.2zm23.8 12.2c3.3 0 5-1.7 5.6-2.9h0.1v2.5h2.9v-12.3c0-5.9-4.5-6.6-6.9-6.6-2.8 0-6.1 0.9-7.5 4.3l2.7 1c0.6-1.3 2.1-2.8 4.9-2.8 2.6 0 3.9 1.4 3.9 3.8v0.1c0 1.4-1.4 1.3-4.8 1.7-3.5 0.4-7.3 1.2-7.3 5.5 0 3.6 2.9 5.7 6.4 5.7zm0.5-2.5c-2.3 0-4-1.1-4-3.1 0-2.2 2-2.8 4.2-3.1 1.3-0.2 4.5-0.5 5-1.1v2.6c0 2.4-1.8 4.7-5.2 4.7zm13.3 2.1h2.9v-11.8c0-2.6 2-4.4 4.7-4.4 0.8 0 1.6 0.1 1.8 0.2v-2.9c-0.4-0.1-1.1-0.1-1.5-0.1-2.3 0-4.2 1.3-4.9 3.1h-0.2v-2.8h-2.8zm12.8 0h2.8v-7l2.1-1.8 6.9 8.8h3.7l-8.5-10.7 7.9-8h-3.5l-8.2 8.4h-0.4v-14.6h-2.8zm18.6 0h2.9v-18.7h-2.9zm1.5-21.8c1.1 0 2-0.8 2-1.9 0-1.1-0.9-2-2-2-1.2 0-2.1 0.9-2.1 2 0 1.1 0.9 1.9 2.1 1.9zm9.5 10.6c0-3.3 2-5.1 4.8-5.1 2.6 0 4.3 1.7 4.3 4.7v11.6h2.8v-11.8c0-4.8-2.5-7.1-6.3-7.1-2.8 0-4.6 1.3-5.5 3.2h-0.2v-2.9h-2.8v18.6h2.9zm24.7 18.7c4.5 0 8.1-2.1 8.1-6.9v-19.2h-2.8v3h-0.3c-0.6-1-1.8-3.3-5.4-3.3-4.7 0-8 3.8-8 9.5 0 5.9 3.4 9.2 7.9 9.2 3.7 0 4.8-2.2 5.5-3.2h0.2v3.8c0 3.1-2.2 4.5-5.2 4.5-3.4 0-4.6-1.8-5.3-2.8l-2.3 1.6c1.1 2 3.4 3.8 7.6 3.8zm-0.1-10.3c-3.6 0-5.4-2.7-5.4-6.6 0-3.8 1.8-6.9 5.4-6.9 3.5 0 5.4 2.8 5.4 6.9 0 4.1-1.9 6.6-5.4 6.6zm26.5-14.9h5c0-4.4-3.7-7.5-9.2-7.5-5.5 0-9.5 3-9.5 7.6 0 3.6 2.6 5.7 6.8 6.7l2.7 0.7c2.7 0.7 4.3 1.5 4.3 3.1 0 1.9-1.8 3.1-4.5 3.1-2.7 0-4.7-1.3-4.8-3.8h-5.1c0.1 5.4 4 8.2 10 8.2 6.1 0 9.7-2.9 9.7-7.4 0-4.2-3.2-6.4-7.5-7.4l-2.2-0.5c-2.2-0.5-4-1.3-4-3.1 0-1.6 1.5-2.8 4-2.8 2.6 0 4.1 1.2 4.3 3.1zm12 24.8c3.9 0 5.9-2 7-5l7.2-20.7h-5.5l-3.9 13.7h-0.2l-3.8-13.7h-5.5l6.7 19.2-0.3 0.8c-0.7 1.7-2 1.8-3.8 1.3l-1.2 3.8c0.8 0.4 2 0.6 3.3 0.6zm32.4-20.4c-0.4-3.4-3.2-5.6-7.9-5.6-4.8 0-8 2.3-8 5.9 0 2.8 1.8 4.6 5.4 5.3l3.3 0.6c1.6 0.4 2.4 1 2.4 1.9 0 1.1-1.3 1.9-3.1 1.9-1.8 0-3-0.8-3.4-2.3l-5.1 0.3c0.5 3.5 3.6 5.7 8.5 5.7 4.9 0 8.3-2.4 8.3-6.1 0-2.7-1.7-4.3-5.4-5.1l-3.3-0.7c-1.8-0.3-2.4-0.9-2.4-1.8 0-1.2 1.2-1.9 2.8-1.9 1.8 0 2.9 1 3.2 2.2zm13.6-5.3h-3.5v-4.5h-5.2v4.5h-2.5v3.9h2.5v9.7c0 3.7 2.5 5.5 6.2 5.3 1.4 0 2.3-0.3 2.8-0.5l-0.8-3.8c-0.2 0-0.8 0.1-1.3 0.1-1 0-1.7-0.3-1.7-1.8v-9h3.5zm11.7 19c4.6 0 7.7-2.2 8.5-5.7l-4.8-0.3c-0.6 1.4-1.9 2.1-3.6 2.1-2.6 0-4.3-1.7-4.3-4.5h12.8v-1.4c0-6.3-3.9-9.5-8.8-9.5-5.5 0-9.1 3.9-9.1 9.7 0 5.9 3.5 9.6 9.3 9.6zm-4.2-11.6c0.2-2.1 1.8-3.8 4.1-3.8 2.2 0 3.8 1.6 3.8 3.8zm16.1 11.2h5.2v-11.2c0-2 1.3-3.4 3-3.4 1.7 0 2.9 1.2 2.9 3v11.6h5v-11.4c0-1.9 1.1-3.2 3-3.2 1.6 0 2.9 1 2.9 3.1v11.5h5.1v-12.5c0-4.1-2.4-6.4-5.9-6.4-2.7 0-4.8 1.4-5.6 3.6h-0.2c-0.6-2.2-2.5-3.6-5-3.6-2.6 0-4.5 1.4-5.3 3.6h-0.2v-3.3h-4.9z"/>
	</g>
</svg>